<svg width="510" height="287" version="1.1" xmlns="http://www.w3.org/2000/svg" desc="Created with imagetracer.js version 1.2.6" ><path fill="rgb(0,0,0)" stroke="rgb(0,0,0)" stroke-width="1" opacity="0" d="M 0 0 L 510 0 L 510 287 L 0 287 L 0 0 Z M 144 83 L 138 85 L 132 85 L 124 88 L 110 97 L 100 108 L 95 120 Q 96 124 94 126 L 94 136 L 99 150 L 110 159 L 130 166 Q 136 164 138 167 L 202 167 L 204 163 L 207 150 L 206 148 L 155 148 L 144 146 L 138 143 Q 132 139 130 132 Q 129 121 133 116 Q 145 98 179 101 L 181 101 L 254 100 L 246 131 L 246 135 L 244 139 L 243 148 L 238 163 Q 237 167 239 167 L 271 167 L 272 166 L 289 100 L 312 100 L 313 101 L 324 102 L 316 114 L 313 124 L 314 141 L 318 148 L 318 150 Q 321 149 320 152 L 329 159 L 349 166 L 357 166 L 358 167 L 421 167 L 426 150 L 425 148 L 374 148 L 372 148 L 360 145 L 357 143 Q 351 140 349 133 L 349 122 L 354 113 L 367 104 L 379 101 L 439 101 L 444 87 L 444 83 L 144 83 Z M 91 186 L 89 188 L 86 200 L 85 199 L 77 199 Q 74 198 74 195 L 82 190 L 84 191 Q 88 192 87 190 Q 89 188 87 187 Q 77 185 74 189 Q 69 191 70 199 L 76 203 Q 83 205 85 201 L 88 203 L 90 202 L 91 197 L 96 194 L 95 198 Q 93 205 98 203 Q 101 200 100 193 L 97 190 L 95 191 L 93 191 L 94 188 L 91 186 Z M 120 186 L 116 202 L 119 203 L 121 200 L 124 190 Q 126 184 120 186 Z M 128 186 Q 123 192 123 202 L 126 203 L 129 197 L 130 201 L 135 203 Q 141 204 142 201 Q 141 198 136 199 Q 142 199 144 195 L 143 193 L 140 190 L 134 191 L 130 196 L 129 196 L 131 190 Q 133 184 128 186 Z M 344 186 Q 340 188 341 194 L 344 193 L 344 197 L 347 199 L 344 199 L 342 202 L 345 203 L 351 202 Q 354 202 353 198 L 349 195 L 353 194 L 354 191 L 351 190 L 345 191 L 346 188 L 344 186 Z M 383 186 L 380 199 L 379 200 Q 377 197 371 199 Q 368 198 368 195 L 376 190 L 380 191 L 381 187 L 371 187 L 364 193 Q 363 199 365 201 L 370 203 Q 376 204 379 201 L 383 203 L 385 197 Q 386 193 390 194 L 388 202 L 391 203 Q 395 200 394 193 L 389 190 L 387 191 Q 389 184 383 186 Z M 178 187 L 176 189 L 177 191 L 175 193 L 173 201 L 177 203 L 182 189 Q 181 186 178 187 Z M 220 187 Q 218 193 224 191 L 222 199 L 223 203 L 227 202 L 229 191 Q 234 192 236 190 L 236 187 L 220 187 Z M 50 190 L 47 200 L 48 202 L 63 191 L 50 190 Z M 111 190 L 105 192 Q 100 193 101 201 L 105 203 L 109 202 L 114 203 L 115 202 L 117 191 L 111 190 Z M 152 190 L 145 191 L 143 199 Q 141 204 146 203 L 148 197 L 153 194 L 152 200 L 152 202 Q 151 204 155 203 L 158 196 L 157 191 L 152 190 Z M 167 190 L 162 192 Q 157 193 158 200 L 162 203 L 158 203 L 159 205 L 169 205 L 173 196 L 173 191 L 167 190 Z M 190 190 L 189 191 L 182 191 L 180 202 L 184 203 L 186 197 L 189 194 L 191 196 L 189 202 L 192 203 L 194 201 L 195 193 L 190 190 Z M 204 190 L 199 192 L 195 198 L 196 201 L 200 203 L 195 203 L 196 205 L 207 205 Q 211 200 211 191 L 206 190 L 204 190 Z M 240 190 L 234 192 L 231 195 Q 230 200 232 202 L 236 203 L 243 202 L 246 198 L 246 202 L 249 203 L 252 195 L 256 194 L 254 202 L 257 203 L 259 202 L 260 197 L 263 194 L 265 195 L 263 202 L 266 203 L 269 196 L 268 191 L 266 190 L 263 191 Q 258 192 257 190 L 248 191 L 247 197 L 246 194 Q 244 190 240 190 Z M 277 190 L 273 192 L 269 197 L 270 201 L 274 203 Q 280 204 283 201 L 285 198 L 285 202 L 288 203 Q 291 202 290 198 L 295 194 L 294 190 L 287 191 L 286 197 L 285 194 Q 283 190 277 190 Z M 304 190 L 303 191 L 296 191 L 294 202 L 297 203 L 299 198 L 303 195 L 304 195 L 303 200 L 308 203 L 315 202 Q 319 201 318 194 L 313 190 L 307 192 L 304 190 Z M 404 190 L 399 192 L 394 198 L 395 201 L 399 203 L 403 202 L 407 203 L 409 200 L 410 191 L 404 190 Z M 420 190 L 419 191 L 412 191 L 410 202 L 413 203 L 415 201 L 416 195 L 420 194 L 418 201 L 422 203 L 425 197 L 426 201 L 429 203 L 425 203 L 426 205 L 436 205 L 439 201 L 440 191 L 437 190 L 429 192 L 426 196 L 425 193 L 420 190 Z M 450 190 L 444 192 L 441 196 L 442 202 L 445 203 Q 451 204 453 201 L 456 203 Q 461 204 463 201 L 464 201 L 464 196 L 460 195 L 463 194 L 464 195 Q 465 191 463 190 L 455 193 L 450 190 Z M 319 191 L 320 202 L 322 203 Q 326 203 327 200 Q 326 197 329 198 Q 328 202 331 203 L 334 202 L 340 194 Q 341 189 337 191 L 334 195 L 332 195 L 332 191 L 328 191 L 325 195 L 323 195 L 323 191 L 319 191 Z " /><path fill="rgb(0,0,0)" stroke="rgb(0,0,0)" stroke-width="1" opacity="0" d="M 109.5 194 Q 111.8 193.3 111 195.5 L 110 198 L 106 199 L 107.5 195 L 109.5 194 Z " /><path fill="rgb(0,0,0)" stroke="rgb(0,0,0)" stroke-width="1" opacity="0" d="M 166.5 194 L 169 194.5 L 165.5 199 Q 161.8 200.3 163 196.5 L 166.5 194 Z " /><path fill="rgb(0,0,0)" stroke="rgb(0,0,0)" stroke-width="1" opacity="0" d="M 203.5 194 Q 206.8 192.9 206 195.5 Q 204.7 199.8 200 199 L 201 195 L 203.5 194 Z " /><path fill="rgb(0,0,0)" stroke="rgb(0,0,0)" stroke-width="1" opacity="0" d="M 238.5 194 L 242 195.5 L 239.5 199 Q 233.8 200.6 236 195 L 238.5 194 Z " /><path fill="rgb(0,0,0)" stroke="rgb(0,0,0)" stroke-width="1" opacity="0" d="M 277.5 194 L 280 195.5 L 277.5 199 Q 272.7 200.7 274 196.5 L 277.5 194 Z " /><path fill="rgb(0,0,0)" stroke="rgb(0,0,0)" stroke-width="1" opacity="0" d="M 310.5 194 L 314 195.5 L 311.5 199 Q 306.7 200.7 308 196.5 L 310.5 194 Z " /><path fill="rgb(0,0,0)" stroke="rgb(0,0,0)" stroke-width="1" opacity="0" d="M 403.5 194 Q 405.8 193.3 405 195.5 Q 403.7 199.8 399 199 L 401.5 195 L 403.5 194 Z " /><path fill="rgb(0,0,0)" stroke="rgb(0,0,0)" stroke-width="1" opacity="0" d="M 433.5 194 Q 436.8 192.9 436 195.5 Q 434.7 199.8 430 199 L 433.5 194 Z " /><path fill="rgb(0,0,0)" stroke="rgb(0,0,0)" stroke-width="1" opacity="0" d="M 454.5 195 L 455 197 L 459 198.5 L 453.5 200 L 446 198.5 L 454 197 L 454.5 195 Z " /><path fill="rgb(9,131,201)" stroke="rgb(9,131,201)" stroke-width="1" opacity="0.8313725490196079" d="M 143.5 83 L 443.5 83 L 444 86.5 L 438.5 101 L 378.5 101 L 366.5 104 L 354 112.5 L 349 121.5 L 349 132.5 Q 350.8 139.7 356.5 143 L 359.5 145 L 371.5 148 L 373.5 148 L 424.5 148 L 426 149.5 L 421 167 L 357.5 167 L 356.5 166 L 348.5 166 L 328.5 159 L 320 151.5 Q 320.7 148.9 318 150 L 318 147.5 L 314 140.5 L 313 123.5 L 316 113.5 L 324 101.5 L 312.5 101 L 311.5 100 L 289 100 L 272 165.5 L 270.5 167 L 238.5 167 Q 237.5 167 238 162.5 L 243 147.5 L 244 138.5 L 246 134.5 L 246 130.5 L 254 100 L 180.5 101 L 178.5 101 Q 145.3 97.8 133 115.5 Q 128.7 120.7 130 131.5 Q 131.8 139.1 137.5 143 L 143.5 146 L 154.5 148 L 205.5 148 L 207 149.5 L 204 162.5 L 201.5 167 L 137.5 167 Q 135.8 164.3 129.5 166 L 109.5 159 L 99 149.5 L 94 135.5 L 94 125.5 Q 96.3 124.2 95 119.5 L 100 107.5 L 109.5 97 L 123.5 88 L 131.5 85 L 137.5 85 L 143.5 83 Z " /><path fill="rgb(9,131,201)" stroke="rgb(9,131,201)" stroke-width="1" opacity="0.8313725490196079" d="M 90.5 186 L 94 187.5 L 93 190.5 L 94.5 191 L 96.5 190 L 100 192.5 Q 100.6 199.8 98 203 Q 92.8 204.8 95 197.5 L 96 194 L 91 196.5 L 90 202 L 87.5 203 L 84.5 201 Q 82.8 204.8 75.5 203 L 70 198.5 Q 68.9 190.9 73.5 189 Q 77 185 86.5 187 Q 89.3 188.3 87 189.5 Q 87.9 192.5 83.5 191 L 81.5 190 L 74 194.5 Q 73.5 198.5 76.5 199 L 84.5 199 L 85.5 200 L 89 187.5 L 90.5 186 Z " /><path fill="rgb(9,131,201)" stroke="rgb(9,131,201)" stroke-width="1" opacity="0.8313725490196079" d="M 120 186 Q 125.6 183.8 124 189.5 L 121 199.5 L 118.5 203 L 116 201.5 L 120 186 Z " /><path fill="rgb(9,131,201)" stroke="rgb(9,131,201)" stroke-width="1" opacity="0.8313725490196079" d="M 127.5 186 Q 132.8 184.3 131 189.5 L 129 195.5 L 130 195.5 L 133.5 191 L 139.5 190 L 143 192.5 L 144.5 195 L 145 191 L 153.5 190 L 157 191 L 158.5 196 L 161.5 192 L 169.5 190 L 173 191 L 173 195.5 L 168.5 205 L 158.5 205 L 158 203 L 162 202.5 L 158 199.5 L 157.5 196 L 154.5 203 Q 151.2 204.1 152 201.5 L 152 199.5 L 153 194 L 148 196.5 L 145.5 203 Q 140.9 204.3 143 198.5 L 144 195.5 L 140.5 198 L 136 198.5 Q 140.6 197.9 142 200.5 Q 140.8 204.3 134.5 203 L 130 200.5 L 128.5 197 L 125.5 203 L 123 201.5 Q 123.2 191.7 127.5 186 Z M 167 194 L 163 197 Q 162 200 166 199 L 169 195 L 167 194 Z " /><path fill="rgb(9,131,201)" stroke="rgb(9,131,201)" stroke-width="1" opacity="0.8313725490196079" d="M 343.5 186 L 346 187.5 L 345 191 L 350.5 190 L 354 191 L 352.5 194 L 349 194.5 L 353 197.5 Q 353.5 201.5 350.5 202 L 344.5 203 L 342 202 L 343.5 199 L 347 198.5 L 344 196.5 L 343.5 193 L 341 194 Q 340 188.3 343.5 186 Z " /><path fill="rgb(9,131,201)" stroke="rgb(9,131,201)" stroke-width="1" opacity="0.8313725490196079" d="M 383 186 Q 389 183.8 387 190.5 L 388.5 190 L 394 192.5 L 394.5 197 L 398.5 192 L 406.5 190 L 410 191 L 409 199.5 L 406.5 203 L 402.5 202 L 398.5 203 L 395 200.5 L 393.5 197 L 390.5 203 L 388 201.5 L 390 194 Q 386.2 193.3 385 196.5 L 382.5 203 L 378.5 201 Q 376.2 204.2 369.5 203 L 365 201 Q 363.3 198.6 364 192.5 L 370.5 187 L 381 187 L 379.5 191 L 375.5 190 L 368 194.5 Q 367.5 198.5 370.5 199 Q 376.8 197.3 378.5 200 L 380 198.5 L 383 186 Z M 404 194 L 402 195 L 399 199 Q 404 200 405 196 Q 406 193 404 194 Z " /><path fill="rgb(9,131,201)" stroke="rgb(9,131,201)" stroke-width="1" opacity="0.8313725490196079" d="M 177.5 187 Q 181.3 186.3 182 188.5 L 176.5 203 L 173 200.5 L 175 192.5 L 177 190.5 L 176 188.5 L 177.5 187 Z " /><path fill="rgb(9,131,201)" stroke="rgb(9,131,201)" stroke-width="1" opacity="0.8313725490196079" d="M 220 187 L 235.5 187 L 236 189.5 L 235.5 191 L 240.5 190 L 246 193.5 L 246.5 197 L 248 191 L 256.5 190 Q 257.8 192.3 262.5 191 L 265.5 190 L 268 191 L 269.5 196 L 272.5 192 L 279.5 190 L 285 193.5 L 285.5 197 L 287 191 L 293.5 190 L 295.5 194 L 296 191 L 302.5 191 L 303.5 190 L 306.5 192 L 312.5 190 L 318 193.5 Q 319.3 200.8 314.5 202 L 307.5 203 L 303 199.5 Q 304.9 194.1 301.5 195 L 296.5 203 L 294 201.5 L 295 194.5 L 293.5 195 L 290 197.5 Q 290.8 202.3 287.5 203 L 285 201.5 L 284.5 198 L 282.5 201 Q 279.6 203.6 273.5 203 L 270 200.5 L 268.5 196 L 265.5 203 L 263 201.5 L 265 194.5 L 262.5 194 L 260 196.5 L 259 202 L 256.5 203 L 254 202 L 256 194 L 252 195 L 248.5 203 L 246 201.5 L 245.5 198 L 242.5 202 L 235.5 203 L 232 202 Q 230.4 199.9 231 194.5 L 235 191.5 L 229 191 L 227 202 L 223 203 L 222 198.5 L 224 191 Q 218 193 220 187 Z M 239 194 L 236 195 Q 234 201 240 199 L 242 196 L 239 194 Z M 278 194 L 274 197 Q 273 201 278 199 L 280 196 L 278 194 Z M 311 194 L 308 197 Q 307 201 312 199 L 314 196 L 311 194 Z " /><path fill="rgb(9,131,201)" stroke="rgb(9,131,201)" stroke-width="1" opacity="0.8313725490196079" d="M 50 190 L 63 190.5 L 47.5 202 L 47 199.5 L 50 190 Z " /><path fill="rgb(9,131,201)" stroke="rgb(9,131,201)" stroke-width="1" opacity="0.8313725490196079" d="M 110.5 190 L 117 191 L 115 201.5 L 113.5 203 L 108.5 202 L 104.5 203 L 101 200.5 Q 99.8 193.3 104.5 192 L 110.5 190 Z M 110 194 L 108 195 L 106 199 L 110 198 L 111 196 Q 112 193 110 194 Z " /><path fill="rgb(9,131,201)" stroke="rgb(9,131,201)" stroke-width="1" opacity="0.8313725490196079" d="M 189.5 190 L 195 192.5 L 195.5 197 L 198.5 192 L 203.5 190 L 205.5 190 L 211 191 Q 211 199.7 206.5 205 L 195.5 205 L 195 203 L 200 202.5 L 196 200.5 L 194.5 197 Q 194.7 201.7 191.5 203 L 189 201.5 L 191 195.5 L 188.5 194 L 186 196.5 L 183.5 203 L 180 201.5 L 182 191 L 188.5 191 L 189.5 190 Z M 204 194 L 201 195 L 200 199 Q 205 200 206 196 Q 207 193 204 194 Z " /><path fill="rgb(9,131,201)" stroke="rgb(9,131,201)" stroke-width="1" opacity="0.8313725490196079" d="M 419.5 190 L 425 192.5 L 425.5 196 L 428.5 192 L 436.5 190 L 440 191 L 439 200.5 L 435.5 205 L 425.5 205 L 425 203 L 429 202.5 L 426 200.5 L 424.5 197 L 421.5 203 L 418 200.5 L 420 194 L 416 195 L 415 200.5 L 412.5 203 L 410 201.5 L 412 191 L 418.5 191 L 419.5 190 Z M 434 194 L 430 199 Q 435 200 436 196 Q 437 193 434 194 Z " /><path fill="rgb(9,131,201)" stroke="rgb(9,131,201)" stroke-width="1" opacity="0.8313725490196079" d="M 449.5 190 L 454.5 193 L 462.5 190 Q 464.8 190.8 464 194.5 L 462.5 194 L 460 194.5 L 464 196 L 464 201 L 462.5 201 Q 460.8 203.8 455.5 203 L 452.5 201 Q 450.5 204 444.5 203 L 442 202 L 441 195.5 L 443.5 192 L 449.5 190 Z M 455 195 L 454 197 L 446 199 L 454 200 L 459 199 L 455 197 L 455 195 Z " /><path fill="rgb(9,131,201)" stroke="rgb(9,131,201)" stroke-width="1" opacity="0.8313725490196079" d="M 319 191 L 323 191 L 323 195 L 324.5 195 L 327.5 191 L 332 191 L 332 195 L 333.5 195 L 336.5 191 Q 341.3 189.3 340 193.5 L 333.5 202 L 330.5 203 Q 328 201.8 329 198 Q 326.3 196.9 327 199.5 Q 326.5 203.5 321.5 203 L 320 201.5 L 319 191 Z " /></svg>